<?xml version="1.0" encoding="utf-8"?>
<!-- Generator: Adobe Illustrator 19.1.0, SVG Export Plug-In . SVG Version: 6.00 Build 0)  -->
<!DOCTYPE svg PUBLIC "-//W3C//DTD SVG 1.1//EN" "http://www.w3.org/Graphics/SVG/1.1/DTD/svg11.dtd">
<svg version="1.1" id="Layer_1" xmlns="http://www.w3.org/2000/svg" xmlns:xlink="http://www.w3.org/1999/xlink" x="0px" y="0px"
	 viewBox="-486 669.4 124.3 124.3" style="enable-background:new -486 669.4 124.3 124.3;" xml:space="preserve">
<style type="text/css">
	.st0{fill:#DF742B;}
</style>
<path class="st0" d="M-383.7,669.4H-464c-12.1,0-22,9.9-22,23.8v80.2c0,10.4,9.9,20.3,22,20.3h80.3c12.2,0,22-9.9,22-22v-80.3
	C-361.7,679.3-371.5,669.4-383.7,669.4z M-438.1,694.1c3.3,0.1,5.3,2.2,5.4,5.4c0.1,1.5,0,11.4,0,11.4l-13.3-3.6c0,0,0-9.6,0-13.2
	C-443.3,694-440.7,694-438.1,694.1z M-409.5,755.5c-2.9-0.1-4.8-1.9-5.2-4.6c0,0-2.8,1.3-9.1,1.3c-6.3,0-8-1-9.1-1.3
	c0,0,0,11.7,0,12.9c-0.2,3.1-2.4,5.1-5.6,5.3c-2.3,0.1-6.6,0.1-7.5,0c-0.1,0-0.1,0-0.2,0l0,0l0,0v-41.3l0,0c0-6.4,0-10.6,0-10.6
	l9,2.5c4.7,1.6,4.3,5.5,4.3,8.5c0,1.3,0,2.4-0.1,3.5c0.1,4.3,2.2,6.8,5.9,7.8c1.2,0.3,2.5,0.4,3.8,0.3c4.9-0.1,8.1-3.2,8.5-8.8
	v-36.9h13v61.3C-404.3,755.5-406.9,755.6-409.5,755.5z"/>
</svg>
