<?xml version="1.0" encoding="utf-8"?>
<!-- Generator: Adobe Illustrator 19.1.0, SVG Export Plug-In . SVG Version: 6.00 Build 0)  -->
<!DOCTYPE svg PUBLIC "-//W3C//DTD SVG 1.1//EN" "http://www.w3.org/Graphics/SVG/1.1/DTD/svg11.dtd">
<svg version="1.1" id="Layer_1" xmlns="http://www.w3.org/2000/svg" xmlns:xlink="http://www.w3.org/1999/xlink" x="0px" y="0px"
	 viewBox="0 0 76.3 146.1" style="enable-background:new 0 0 76.3 146.1;" xml:space="preserve">
<g>
	<path d="M61.7,0H14.6C6.5,0,0,6.5,0,14.6V55v76.6c0,8,6.5,14.6,14.6,14.6h47.1c8,0,14.6-6.5,14.6-14.6V55V14.6
		C76.3,6.5,69.7,0,61.7,0z M70.4,131.6c0,4.8-3.9,8.7-8.7,8.7H14.6c-4.8,0-8.7-3.9-8.7-8.7v-65c2.4,1.8,5.5,2.9,8.7,2.9h47.1
		c3.3,0,6.3-1.1,8.7-2.9V131.6z M70.4,55c0,4.8-3.9,8.7-8.7,8.7H14.6c-4.8,0-8.7-3.9-8.7-8.7V14.6c0-4.8,3.9-8.7,8.7-8.7h47.1
		c4.8,0,8.7,3.9,8.7,8.7V55z"/>
	<path d="M28.1,24l5.4,1.5c0.2,0,0.3-0.1,0.3-0.3c0-1,0-4.2,0-4.7c-0.1-1.4-1-2.4-2.4-2.4c-1.1-0.1-2.1,0-3.3,0
		c-0.2,0-0.2,0.2-0.2,0.3c0,1.3,0,5.4,0,5.4C27.9,23.8,28,23.9,28.1,24z"/>
	<path d="M46.9,18.2h-4.3c-0.4,0-0.7,0.3-0.7,0.7v15.7c-0.2,2.5-1.6,3.9-3.8,3.9c-0.6,0-1.2,0-1.7-0.1c-1.6-0.4-2.6-1.6-2.6-3.5
		c0-0.5,0-1,0-1.6c0-1.3,0.2-3.1-1.9-3.8l-3.5-1c-0.3-0.1-0.5,0-0.5,0.3c0,0.6,0,2,0,4.2v17.8c0,0,0,0.5,0.4,0.5c0.7,0,2.1,0,3,0
		c1.4,0,2.4-0.9,2.5-2.4c0-0.4,0-4.2,0-5.4c0-0.2,0.2-0.3,0.4-0.2c0.5,0.2,1.4,0.4,3.7,0.4c2.2,0,3.5-0.4,3.9-0.5
		c0.1,0,0.2,0,0.2,0.1c0.2,1.1,1.1,1.8,2.3,1.9c1,0,1.8,0,2.9,0c0.6,0,0.6-0.5,0.6-0.5l0-26.1C47.6,18.5,47.3,18.2,46.9,18.2z"/>
</g>
<g>
</g>
<g>
</g>
<g>
</g>
<g>
</g>
<g>
</g>
<g>
</g>
</svg>
