<?xml version="1.0" encoding="utf-8"?>
<!-- Generator: Adobe Illustrator 16.0.0, SVG Export Plug-In . SVG Version: 6.00 Build 0)  -->
<!DOCTYPE svg PUBLIC "-//W3C//DTD SVG 1.1//EN" "http://www.w3.org/Graphics/SVG/1.1/DTD/svg11.dtd">
<svg version="1.1" id="Layer_1" xmlns="http://www.w3.org/2000/svg" xmlns:xlink="http://www.w3.org/1999/xlink" x="0px" y="0px"
	 width="500px" height="500px" viewBox="0 0 500 500" enable-background="new 0 0 500 500" xml:space="preserve">
<path fill="#474748" d="M411.505,0H88.496C39.824,0,0,39.822,0,95.735v322.606C0,460.177,39.824,500,88.496,500h323.009
	C460.58,500,500,460.176,500,411.504V88.495C500,39.822,460.58,0,411.505,0z M192.679,99.355
	c13.274,0.402,21.319,8.85,21.722,21.722c0.402,6.034,0,45.857,0,45.857l-53.5-14.481c0,0,0-38.616,0-53.098
	C171.762,98.953,182.221,98.953,192.679,99.355z M307.724,346.339c-11.665-0.402-19.308-7.643-20.917-18.503
	c0,0-11.264,5.229-36.605,5.229c-25.342,0-32.18-4.022-36.605-5.229c0,0,0,47.062,0,51.891
	c-0.805,12.469-9.654,20.515-22.526,21.318c-9.251,0.402-26.549,0.402-30.169,0c-0.402,0-0.402,0-0.805,0l0,0l0,0v-166.13l0,0
	c0-25.744,0-42.639,0-42.639l36.203,10.057c18.906,6.436,17.297,22.124,17.297,34.191c0,5.229,0,9.654-0.402,14.079
	c0.402,17.297,8.85,27.353,23.733,31.375c4.827,1.207,10.056,1.609,15.286,1.207c19.71-0.402,32.582-12.872,34.191-35.398V99.355
	h52.293v246.581C328.641,346.339,318.182,346.741,307.724,346.339z"/>
</svg>
