<?xml version="1.0" encoding="utf-8"?>
<!-- Generator: Adobe Illustrator 19.1.0, SVG Export Plug-In . SVG Version: 6.00 Build 0)  -->
<!DOCTYPE svg PUBLIC "-//W3C//DTD SVG 1.1//EN" "http://www.w3.org/Graphics/SVG/1.1/DTD/svg11.dtd">
<svg version="1.1" id="Layer_1" xmlns="http://www.w3.org/2000/svg" xmlns:xlink="http://www.w3.org/1999/xlink" x="0px" y="0px"
	 viewBox="-566 719.8 44.5 75.3" style="enable-background:new -566 719.8 44.5 75.3;" xml:space="preserve">
<style type="text/css">
	.st0{fill:#4696C6;}
</style>
<g>
	<g>
		<path class="st0" d="M-552.7,736.7c0,0,0.1-9.9,0-11.4c-0.2-3.2-2.2-5.3-5.4-5.4c-2.6-0.2-5.2-0.1-7.9-0.1c0,3.6,0,13.2,0,13.2
			L-552.7,736.7z"/>
		<path class="st0" d="M-521.6,720h-13v36.9c-0.4,5.6-3.6,8.7-8.5,8.8c-1.3,0-2.6,0-3.8-0.3c-3.7-1-5.8-3.6-5.9-7.9v0.4
			c0-1.2,0.1-2.4,0.1-3.8c0-3,0.4-6.9-4.3-8.5l-9-2.5c0,0,0,4.2,0,10.6l0,0V795l0,0l0,0c0.1,0,0.1,0,0.2,0c0.9,0,5.3,0.1,7.5,0
			c3.2-0.1,5.4-2.1,5.6-5.3c0.1-1.2,0-12.9,0-12.9c1.1,0.4,2.7,1.3,9.1,1.3c6.3,0,9.1-1.3,9.1-1.3c0.4,2.7,2.3,4.5,5.2,4.6
			c2.5,0.1,5.2,0,7.8,0L-521.6,720z"/>
	</g>
</g>
</svg>
