<?xml version="1.0" encoding="utf-8"?>
<!-- Generator: Adobe Illustrator 19.1.0, SVG Export Plug-In . SVG Version: 6.00 Build 0)  -->
<!DOCTYPE svg PUBLIC "-//W3C//DTD SVG 1.1//EN" "http://www.w3.org/Graphics/SVG/1.1/DTD/svg11.dtd">
<svg version="1.1" id="Layer_1" xmlns="http://www.w3.org/2000/svg" xmlns:xlink="http://www.w3.org/1999/xlink" x="0px" y="0px"
	 viewBox="0 0 328.7 91.2" style="enable-background:new 0 0 328.7 91.2;" xml:space="preserve">
<style type="text/css">
	.st0{fill:#474748;}
</style>
<g>
	<g>
		<defs>
			<path id="SVGID_1_" d="M69.1,75.8c-2.9-0.2-5.6-0.2-8.3-0.6c-3.5-0.6-4.9-2.7-4.9-6.8c0-9.4,0-18.8,0-28.3c0-0.8,0-1.6,0-2.3
				c-0.4-5.6-3.2-8.6-8.1-8.7c-1.3,0-2.6,0-3.8,0.3c-3.6,1-5.5,3.6-5.5,7.9c0,7.4,0,14.8,0,22.1c0,5.2,0,10.5,0,15.9
				c-4.4,0-8.7,0-13.2,0c-0.1-0.3-0.2-0.8-0.2-1.2c0-12.4-0.2-24.9,0.2-37.3c0.4-11.5,6.2-19.1,16.5-20.7c4.6-0.7,9.1-0.6,13.6,0.7
				c8.1,2.4,11.9,8.6,13.1,16.9c0.4,2.9,0.5,6,0.5,9c0.1,9.9,0,19.8,0,29.7C69.1,73.5,69.1,74.4,69.1,75.8z"/>
		</defs>
		<use xlink:href="#SVGID_1_"  style="overflow:visible;fill:#474748;"/>
		<clipPath id="SVGID_2_">
			<use xlink:href="#SVGID_1_"  style="overflow:visible;"/>
		</clipPath>
	</g>
	<g>
		<defs>
			<path id="SVGID_3_" d="M180,17.7c-7.8,1.7-13.5,6.4-16.4,15.2c-1.2,3.9-1.8,7.9-1.8,12c0,2.8,0,5.6,0,8.5l0,0c0,0,0,1.2,0,3
				c0,2.8,0,5.5,0,8.3c0,4.5,0,9.1,0,10.9c0.1,0,0.1,0,0.2,0l0,0c0,0,0,0,0,0c2.7,0,5.5,0.2,8.3-0.1c2.6-0.2,4.4-2.6,4.6-5.7
				C175,67.9,175,64,175,64s-0.1-8.4,0-16.8c0-2,0.2-4.1,0.4-6.1c0.6-4.6,3.3-7.7,7.3-8.4c2.4-0.4,4.8-0.5,7.4-0.7c0-5,0-9.9,0-15.4
				C186.5,16.5,183.3,17,180,17.7z"/>
		</defs>
		<use xlink:href="#SVGID_3_"  style="overflow:visible;fill:#474748;"/>
		<clipPath id="SVGID_4_">
			<use xlink:href="#SVGID_3_"  style="overflow:visible;"/>
		</clipPath>
	</g>
	<g>
		<path class="st0" d="M153.7,33.8c-1.2-8.4-5-14.5-13.1-16.9c-4.5-1.3-9-1.4-13.6-0.7c-10.3,1.6-16.1,9.3-16.5,20.7
			c0,0.1-0.2,12.2-0.2,12.2c0,3,0.1,6,0.5,9c1.2,8.4,5,13.9,13.1,16.3c4.5,1.3,9,1.4,13.6,0.7c10.3-1.6,16.1-8.6,16.5-20.1l0.2-12.2
			C154.2,39.8,154.2,36.7,153.7,33.8z M140.9,54.6c0,4.3-1.9,6.9-5.5,7.9c-1.2,0.3-2.5,0.4-3.8,0.3c-4.5-0.1-7.3-2.7-8-7.4
			c0-6,0-12.1,0-18.1c0-4.3,1.9-6.9,5.5-7.9c1.2-0.3,2.5-0.4,3.8-0.3c4.5,0.1,7.3,2.7,8,7.4C140.9,42.5,140.9,48.6,140.9,54.6z"/>
	</g>
	<path class="st0" d="M90.8,24.4c0.6-3.4,1.6-6.1,5.7-7.8c2.4-1,6.6-1.1,9-1.1c0-5,0.1-9.9,0.1-15.4c-3.6,0-7.1,0.3-10.4,1
		C87.5,2.8,81.7,8,78.9,16.7c-1.2,3.9-1.8,7.9-1.8,12c0,2.8,0,21.4,0,24.2l0,0c0,0,0,1.2,0,3c0,2.8,0,5.5,0,8.3c0,4.5,0,9.1,0,10.9
		c0.1,0,0.1,0,0.2,0l0,0c0,0,0,0,0,0c2.7,0,5.5,0.2,8.3-0.1c2.6-0.2,4.4-2.6,4.6-5.7c0.1-1.8,0.2-5.7,0.2-5.7s0-11.6,0-21.5
		c7.6,0,15.4,0,15.4,0v-13c0,0-7.6,0-15.3,0C90.4,27.5,90.6,25.8,90.8,24.4z"/>
	<path class="st0" d="M17.9,75.5c-4.3,0-8.5,0-12.9,0c0-19.4,0-53.3,0-53.3l8.8,2.4c2.9,0.8,3.6,3.3,4.1,6C18,31.4,18,32.2,18,33
		c0,16.2,0,24,0,40.2C18,73.9,17.9,74.7,17.9,75.5z"/>
	<path class="st0" d="M5,0c2.7,0,5.2-0.1,7.7,0c3.2,0.1,5.1,2.2,5.3,5.3c0.1,1.5,0,14.2,0,14.2L5,16C5,16,5,3.6,5,0z"/>
	<path class="st0" d="M323.7,16h-12.9v37.4c-0.4,5.6-3.5,8.7-8.4,8.7c-1.3,0-2.6,0-3.8-0.3c-3.6-1-5.8-3.6-5.8-7.9V15.8h-13.2v75.4
		c0,0,5.2,0.1,7.7,0c3.2-0.1,5.4-2.1,5.5-5.2c0.1-1.2,0-12.9,0-12.9c1.1,0.4,2.7,1.3,9,1.3c6.2,0,9-1.3,9-1.3
		c0.4,2.7,2.2,4.5,5.1,4.6c2.5,0.1,5.1,0,7.8,0L323.7,16z"/>
	<path class="st0" d="M270.8,50.6c0-4.9,0-9.9-0.4-14.8c-0.8-10.2-5.5-17-14.1-19.3c-3.5-0.9-7.8-1-11.8-0.4c-2.5,0.4-4.5,1-6.7,2.1
		c-0.5,0.2-0.9,0.4-1.4,0.6c-1.1,0.5-2.1,1.3-2.6,1.6c-2.9-1.3-5.2-2.6-7.7-3.4c-4.7-1.5-9.6-1.5-14.4-0.4
		c-7.5,1.6-12.7,6.3-14.6,15c-0.6,2.8-1,5.7-1,8.6c-0.1,11.1-0.1,22.2,0,33.2c0,0.7,0.1,1.5,0.2,2.2c4.4,0,8.5,0,12.9,0
		c0-1.2,0-2.2,0-3.2c0-10.7,0-21.4,0-32.1c0-1.6,0.1-3.3,0.4-4.9c0.5-2.8,1.9-4.7,4.3-5.6c2.4-0.9,4.9-0.9,7.3-0.2
		c3.3,1,5,3.3,5.3,7.2c0.1,0.9,0.1,1.7,0.1,2.6c0,11,0,22,0,32.9c0,1,0,2.1,0,3.2c4.6,0,8.8,0,13.2,0c0-1.1,0-2.1,0-3.1
		c0-10.6,0-21.2,0-31.8c0-1,0.1-1.9,0.1-2.9c0.4-6.1,3.3-8.3,8.5-8.5c1.3-0.1,2.6,0.2,3.8,0.6c2.8,0.9,4.4,3.1,4.9,6.3
		c0.2,1,0.1,2.1,0.2,3.2c0,8.7,0,17.5,0,26.2c0,1.4,0.2,2.9,0.3,4.3c0.2,2.9,1.6,4.6,4,5.3c3,0.9,6,0.4,9.2,0.4c0-1.3,0-2.3,0-3.2
		C270.8,65.1,270.8,57.9,270.8,50.6z"/>
</g>
<g>
</g>
<g>
</g>
<g>
</g>
<g>
</g>
<g>
</g>
<g>
</g>
</svg>
